<svg width="20" height="18" viewBox="0 0 20 18" fill="none" xmlns="http://www.w3.org/2000/svg">
<path d="M3.08716 15.75L17.1497 2.25" stroke="#999999" stroke-width="1.2" stroke-linecap="round" stroke-linejoin="round"/>
<path d="M7.7229 14.2883C8.46001 14.5172 9.22808 14.6308 9.9999 14.625C13.0749 14.6768 16.1934 12.5153 18.1179 10.3973C18.5453 9.92283 18.5453 9.20224 18.1179 8.72778C17.4207 7.96294 16.6483 7.2702 15.8124 6.66003" stroke="#999999" stroke-width="1.2" stroke-linecap="round" stroke-linejoin="round"/>
<path d="M11.8097 4.71152C11.218 4.56426 10.6098 4.49318 9.99999 4.50002C6.97674 4.44977 3.84999 6.56402 1.88424 8.72627C1.45688 9.20073 1.45688 9.92132 1.88424 10.3958C2.48194 11.0501 3.1343 11.6523 3.83424 12.1958" stroke="#999999" stroke-width="1.2" stroke-linecap="round" stroke-linejoin="round"/>
<path d="M7.1875 9.5625C7.1873 8.81652 7.48355 8.10103 8.01104 7.57354C8.53853 7.04605 9.25402 6.7498 10 6.75" stroke="#999999" stroke-width="1.2" stroke-linecap="round" stroke-linejoin="round"/>
<path d="M12.8125 9.56177V9.56177C12.8127 10.3078 12.5165 11.0234 11.989 11.551C11.4615 12.0786 10.7461 12.375 10 12.375" stroke="#999999" stroke-width="1.2" stroke-linecap="round" stroke-linejoin="round"/>
</svg>
