<svg width="20" height="18" viewBox="0 0 20 18" fill="none" xmlns="http://www.w3.org/2000/svg">
<path fill-rule="evenodd" clip-rule="evenodd" d="M9.99999 3.93828C6.97674 3.88728 3.84999 6.00003 1.88424 8.16378C1.45688 8.63824 1.45688 9.35883 1.88424 9.83328C3.80724 11.9513 6.92499 14.1128 9.99999 14.061C13.075 14.1128 16.1935 11.9513 18.118 9.83328C18.5454 9.35883 18.5454 8.63824 18.118 8.16378C16.15 6.00003 13.0232 3.88728 9.99999 3.93828Z" stroke="#424242" stroke-width="1.2" stroke-linecap="round" stroke-linejoin="round"/>
<path fill-rule="evenodd" clip-rule="evenodd" d="M12.8125 9.00002C12.8121 10.5532 11.5527 11.812 9.9995 11.8118C8.4463 11.8115 7.18736 10.5522 7.1875 8.99902C7.18764 7.44581 8.4468 6.18677 10 6.18677C10.7461 6.18657 11.4617 6.48292 11.9892 7.01058C12.5167 7.53823 12.8129 8.25391 12.8125 9.00002V9.00002Z" stroke="#424242" stroke-width="1.2" stroke-linecap="round" stroke-linejoin="round"/>
</svg>
